<?xml version="1.0" encoding="UTF-8"?>
<svg width="385px" height="197px" viewBox="0 0 385 197" version="1.1" xmlns="http://www.w3.org/2000/svg" xmlns:xlink="http://www.w3.org/1999/xlink">
    <!-- Generator: Sketch 43.1 (39012) - http://www.bohemiancoding.com/sketch -->
    <title>Group 11</title>
    <desc>Created with Sketch.</desc>
    <defs>
        <polygon id="path-1" points="0 196.670273 384.836935 196.670273 384.836935 0 0 0"></polygon>
    </defs>
    <g id="Page-1" stroke="none" stroke-width="1" fill="none" fill-rule="evenodd">
        <g id="Get-Started" transform="translate(-170.000000, -340.000000)">
            <g id="Group-20" transform="translate(170.000000, 340.000000)">
                <g id="Group-18">
                    <g id="Group-11">
                        <g id="Page-1">
                            <path d="M271.610571,174.069775 L113.226051,174.069775 L113.226051,85.8900666 C113.226051,82.1909605 116.215923,79.1920666 119.9039,79.1920666 L264.933244,79.1920666 C268.6207,79.1920666 271.610571,82.1909605 271.610571,85.8900666 L271.610571,174.069775 Z" id="Fill-1" fill="#82F9EB"></path>
                            <path d="M271.610571,174.069775 L113.226051,174.069775 L113.226051,85.8900666 C113.226051,82.1909605 116.215923,79.1920666 119.9039,79.1920666 L264.933244,79.1920666 C268.6207,79.1920666 271.610571,82.1909605 271.610571,85.8900666 L271.610571,174.069775 Z" id="Stroke-3" stroke="#3ED1C4" stroke-width="1.56263875"></path>
                            <path d="M277.529204,184.532304 L107.307627,184.532304 C103.546193,184.532304 100.49693,181.47384 100.49693,177.701054 L100.49693,175.67671 C100.49693,174.789426 101.214312,174.069879 102.099447,174.069879 L282.737384,174.069879 C283.622519,174.069879 284.339901,174.789426 284.339901,175.67671 L284.339901,177.701054 C284.339901,181.47384 281.290638,184.532304 277.529204,184.532304" id="Fill-5" fill="#82F9EB"></path>
                            <path d="M277.529204,184.532304 L107.307627,184.532304 C103.546193,184.532304 100.49693,181.47384 100.49693,177.701054 L100.49693,175.67671 C100.49693,174.789426 101.214312,174.069879 102.099447,174.069879 L282.737384,174.069879 C283.622519,174.069879 284.339901,174.789426 284.339901,175.67671 L284.339901,177.701054 C284.339901,181.47384 281.290638,184.532304 277.529204,184.532304 Z" id="Stroke-7" stroke="#3ED1C4" stroke-width="1.56263875"></path>
                            <path d="M265.303917,174.069775 L119.532706,174.069775 L119.532706,86.5380241 C119.532706,86.0321992 119.942191,85.6214777 120.446495,85.6214777 L264.390128,85.6214777 C264.894952,85.6214777 265.303917,86.0321992 265.303917,86.5380241 L265.303917,174.069775 Z" id="Fill-9" fill="#E9FFFB"></path>
                            <path d="M265.303917,174.069775 L119.532706,174.069775 L119.532706,86.5380241 C119.532706,86.0321992 119.942191,85.6214777 120.446495,85.6214777 L264.390128,85.6214777 C264.894952,85.6214777 265.303917,86.0321992 265.303917,86.5380241 L265.303917,174.069775 Z" id="Stroke-11" stroke="#3ED1C4" stroke-width="1.56263875"></path>
                            <path d="M214.914398,177.7276 L169.922537,177.7276 C168.176231,177.7276 166.760223,176.307841 166.760223,174.556266 L166.760223,174.069775 L218.076191,174.069775 L218.076191,174.556266 C218.076191,176.307841 216.660704,177.7276 214.914398,177.7276" id="Fill-13" fill="#C0FFF8"></path>
                            <path d="M214.914398,177.7276 L169.922537,177.7276 C168.176231,177.7276 166.760223,176.307841 166.760223,174.556266 L166.760223,174.069775 L218.076191,174.069775 L218.076191,174.556266 C218.076191,176.307841 216.660704,177.7276 214.914398,177.7276 Z" id="Stroke-15" stroke="#3ED1C4" stroke-width="1.56263875"></path>
                            <path d="M380.933639,195.886454 L3.90298309,195.886454 C2.17907916,195.886454 0.781305142,194.484462 0.781305142,192.755355 L0.781305142,187.663663 C0.781305142,185.934034 2.17907916,184.532042 3.90298309,184.532042 L380.933639,184.532042 C382.657543,184.532042 384.055317,185.934034 384.055317,187.663663 L384.055317,192.755355 C384.055317,194.484462 382.657543,195.886454 380.933639,195.886454" id="Fill-17" fill="#E9FFFB"></path>
                            <path d="M380.933639,195.886454 L3.90298309,195.886454 C2.17907916,195.886454 0.781305142,194.484462 0.781305142,192.755355 L0.781305142,187.663663 C0.781305142,185.934034 2.17907916,184.532042 3.90298309,184.532042 L380.933639,184.532042 C382.657543,184.532042 384.055317,185.934034 384.055317,187.663663 L384.055317,192.755355 C384.055317,194.484462 382.657543,195.886454 380.933639,195.886454 Z" id="Stroke-19" stroke="#3ED1C4" stroke-width="1.56263875"></path>
                            <mask id="mask-2" fill="white">
                                <use xlink:href="#path-1"></use>
                            </mask>
                            <g id="Clip-22"></g>
                            <polygon id="Fill-21" fill="#E9FFFB" mask="url(#mask-2)" points="292.852673 184.532042 307.960927 184.532042 307.960927 97.3739125 292.852673 97.3739125"></polygon>
                            <polygon id="Stroke-23" stroke="#3ED1C4" stroke-width="1.56263875" stroke-linecap="round" stroke-linejoin="round" mask="url(#mask-2)" points="292.852673 184.532042 307.960927 184.532042 307.960927 97.3739125 292.852673 97.3739125"></polygon>
                            <polygon id="Fill-24" fill="#82F9EB" mask="url(#mask-2)" points="307.960927 184.532042 323.069181 184.532042 323.069181 110.437573 307.960927 110.437573"></polygon>
                            <polygon id="Stroke-25" stroke="#3ED1C4" stroke-width="1.56263875" mask="url(#mask-2)" points="307.960927 184.532042 323.069181 184.532042 323.069181 110.437573 307.960927 110.437573"></polygon>
                            <polygon id="Fill-26" fill="#82F9EB" mask="url(#mask-2)" points="353.28569 184.532042 368.393945 184.532042 368.393945 110.437573 353.28569 110.437573"></polygon>
                            <polygon id="Stroke-27" stroke="#3ED1C4" stroke-width="1.56263875" mask="url(#mask-2)" points="353.28569 184.532042 368.393945 184.532042 368.393945 110.437573 353.28569 110.437573"></polygon>
                            <polygon id="Fill-28" fill="#82F9EB" mask="url(#mask-2)" points="338.177436 184.532042 353.28569 184.532042 353.28569 120.231138 338.177436 120.231138"></polygon>
                            <polygon id="Stroke-29" stroke="#3ED1C4" stroke-width="1.56263875" mask="url(#mask-2)" points="338.177436 184.532042 353.28569 184.532042 353.28569 120.231138 338.177436 120.231138"></polygon>
                            <polygon id="Fill-30" fill="#FFFFFF" mask="url(#mask-2)" points="323.069181 184.532042 338.177436 184.532042 338.177436 101.648342 323.069181 101.648342"></polygon>
                            <polygon id="Stroke-31" stroke="#3ED1C4" stroke-width="1.56263875" stroke-linecap="round" stroke-linejoin="round" mask="url(#mask-2)" points="323.069181 184.532042 338.177436 184.532042 338.177436 101.648342 323.069181 101.648342"></polygon>
                            <polygon id="Fill-32" fill="#3ED1C4" mask="url(#mask-2)" points="292.852673 108.217273 307.960927 108.217273 307.960927 106.257724 292.852673 106.257724"></polygon>
                            <polygon id="Fill-33" fill="#3ED1C4" mask="url(#mask-2)" points="314.538227 152.381851 316.491881 152.381851 316.491881 116.621387 314.538227 116.621387"></polygon>
                            <polygon id="Fill-34" fill="#3ED1C4" mask="url(#mask-2)" points="344.754736 162.391228 346.70839 162.391228 346.70839 126.630764 344.754736 126.630764"></polygon>
                            <polygon id="Fill-35" fill="#3ED1C4" mask="url(#mask-2)" points="292.852673 112.397645 307.960927 112.397645 307.960927 110.438095 292.852673 110.438095"></polygon>
                            <polygon id="Fill-36" fill="#3ED1C4" mask="url(#mask-2)" points="353.28569 119.121249 368.393945 119.121249 368.393945 117.1617 353.28569 117.1617"></polygon>
                            <polygon id="Fill-37" fill="#3ED1C4" mask="url(#mask-2)" points="353.28569 123.301621 368.393945 123.301621 368.393945 121.342072 353.28569 121.342072"></polygon>
                            <polygon id="Fill-38" fill="#3ED1C4" mask="url(#mask-2)" points="323.069181 112.397645 338.177436 112.397645 338.177436 110.438095 323.069181 110.438095"></polygon>
                            <polygon id="Fill-39" fill="#3ED1C4" mask="url(#mask-2)" points="323.069181 116.578016 338.177436 116.578016 338.177436 114.618467 323.069181 114.618467"></polygon>
                            <polygon id="Fill-40" fill="#82F9EB" mask="url(#mask-2)" points="51.5107077 173.629947 47.2465332 176.631454 8.99347497 121.959512 13.2576495 118.958006"></polygon>
                            <polygon id="Stroke-41" stroke="#3ED1C4" stroke-width="1.56263875" mask="url(#mask-2)" points="51.5107077 173.629947 47.2465332 176.631454 8.99347497 121.959512 13.2576495 118.958006"></polygon>
                            <polygon id="Fill-42" fill="#82F9EB" mask="url(#mask-2)" points="63.5009831 80.3256265 66.4934594 84.602669 11.9860034 122.971162 8.99352706 118.69412"></polygon>
                            <polygon id="Stroke-43" stroke="#3ED1C4" stroke-width="1.56263875" mask="url(#mask-2)" points="63.5009831 80.3256265 66.4934594 84.602669 11.9860034 122.971162 8.99352706 118.69412"></polygon>
                            <path d="M7.82237686,127.519981 C11.2087097,129.708406 15.722431,128.729154 17.9037503,125.332602 C20.0855907,121.936573 19.1092848,117.409231 15.7234729,115.220806 C12.3371401,113.032382 7.82341881,114.011634 5.64157848,117.408185 C3.45973816,120.804215 4.43604398,125.331557 7.82237686,127.519981" id="Fill-44" fill="#FFFFFF" mask="url(#mask-2)"></path>
                            <path d="M7.82237686,127.519981 C11.2087097,129.708406 15.722431,128.729154 17.9037503,125.332602 C20.0855907,121.936573 19.1092848,117.409231 15.7234729,115.220806 C12.3371401,113.032382 7.82341881,114.011634 5.64157848,117.408185 C3.45973816,120.804215 4.43604398,125.331557 7.82237686,127.519981 Z" id="Stroke-45" stroke="#3ED1C4" stroke-width="1.56263875" mask="url(#mask-2)"></path>
                            <path d="M49.0842179,164.648158 C38.220341,164.648158 29.4137916,173.280103 29.4137916,184.378466 L68.7551651,184.378466 C68.7551651,173.280103 59.9480947,164.648158 49.0842179,164.648158" id="Fill-46" fill="#E9FFFB" mask="url(#mask-2)"></path>
                            <path d="M49.0842179,164.648158 C38.220341,164.648158 29.4137916,173.280103 29.4137916,184.378466 L68.7551651,184.378466 C68.7551651,173.280103 59.9480947,164.648158 49.0842179,164.648158 Z" id="Stroke-47" stroke="#3ED1C4" stroke-width="1.56263875" mask="url(#mask-2)"></path>
                            <path d="M67.1052916,69.1945517 C58.0835798,80.2484987 59.5001089,96.377939 70.725021,105.59409 L103.395319,65.5638992 C92.1709276,56.347748 76.1270034,58.1406048 67.1052916,69.1945517" id="Fill-48" fill="#E9FFFB" mask="url(#mask-2)"></path>
                            <path d="M67.1052916,69.1945517 C58.0835798,80.2484987 59.5001089,96.377939 70.725021,105.59409 L103.395319,65.5638992 C92.1709276,56.347748 76.1270034,58.1406048 67.1052916,69.1945517 Z" id="Stroke-49" stroke="#3ED1C4" stroke-width="1.56263875" mask="url(#mask-2)"></path>
                            <path d="M210.004684,129.772104 C210.004684,139.513937 202.1312,147.411703 192.418155,147.411703 C182.705631,147.411703 174.832147,139.513937 174.832147,129.772104 C174.832147,120.030271 182.705631,112.132505 192.418155,112.132505 C202.1312,112.132505 210.004684,120.030271 210.004684,129.772104" id="Fill-50" fill="#FFFFFF" mask="url(#mask-2)"></path>
                            <path d="M210.004684,129.772104 C210.004684,139.513937 202.1312,147.411703 192.418155,147.411703 C182.705631,147.411703 174.832147,139.513937 174.832147,129.772104 C174.832147,120.030271 182.705631,112.132505 192.418155,112.132505 C202.1312,112.132505 210.004684,120.030271 210.004684,129.772104 Z" id="Stroke-51" stroke="#3ED1C4" stroke-width="1.56263875" mask="url(#mask-2)"></path>
                            <polyline id="Stroke-52" stroke="#3ED1C4" stroke-width="1.56263875" stroke-linecap="round" stroke-linejoin="round" mask="url(#mask-2)" points="185.45773 128.943763 190.176715 134.150416 199.379205 125.393583"></polyline>
                            <path d="M288.772558,48.5455029 C289.822321,48.5455029 290.59701,47.5186992 290.26515,46.5195905 C289.266442,43.5128584 286.443803,41.3448133 283.110089,41.3448133 C281.887883,41.3448133 280.737572,41.6426647 279.715941,42.1594631 C279.421591,39.6810255 277.58724,37.6796727 275.197531,37.1435401 C274.209243,32.5430414 270.132098,29.0947576 265.250569,29.0947576 C259.629777,29.0947576 255.072815,33.6649485 255.072815,39.3032244 C255.072815,39.4040759 255.077504,39.5038822 255.08063,39.6042111 C254.488282,39.4563305 253.872491,39.3690653 253.234297,39.3690653 C249.027951,39.3690653 245.617653,42.7891316 245.617653,47.0086939 L245.617653,47.0243703 C245.619737,47.8719406 246.333472,48.5455029 247.178492,48.5455029 L288.772558,48.5455029 Z" id="Fill-53" fill="#FFFFFF" mask="url(#mask-2)"></path>
                            <path d="M288.772558,48.5455029 C289.822321,48.5455029 290.59701,47.5186992 290.26515,46.5195905 C289.266442,43.5128584 286.443803,41.3448133 283.110089,41.3448133 C281.887883,41.3448133 280.737572,41.6426647 279.715941,42.1594631 C279.421591,39.6810255 277.58724,37.6796727 275.197531,37.1435401 C274.209243,32.5430414 270.132098,29.0947576 265.250569,29.0947576 C259.629777,29.0947576 255.072815,33.6649485 255.072815,39.3032244 C255.072815,39.4040759 255.077504,39.5038822 255.08063,39.6042111 C254.488282,39.4563305 253.872491,39.3690653 253.234297,39.3690653 C249.027951,39.3690653 245.617653,42.7891316 245.617653,47.0086939 L245.617653,47.0243703 C245.619737,47.8719406 246.333472,48.5455029 247.178492,48.5455029 L288.772558,48.5455029 Z" id="Stroke-54" stroke="#3ED1C4" stroke-width="1.56263875" mask="url(#mask-2)"></path>
                            <path d="M112.405465,21.4773371 C113.522434,21.4773371 114.346615,20.3846926 113.993394,19.3218332 C112.930607,16.1233265 109.927711,13.8162841 106.381439,13.8162841 C105.081087,13.8162841 103.856798,14.1334698 102.770566,14.6837111 C102.45694,12.0464194 100.50537,9.91704271 97.9630156,9.34694456 C96.9116894,4.4527748 92.5745785,0.783976393 87.3804648,0.783976393 C81.4007219,0.783976393 76.5530562,5.64627082 76.5530562,11.6445812 C76.5530562,11.7517032 76.5577449,11.8583027 76.5608708,11.9649021 C75.9310129,11.8070931 75.2756272,11.7146024 74.5967977,11.7146024 C70.1216286,11.7146024 66.4935636,15.3530931 66.4935636,19.8422894 L66.4935636,19.8590109 C66.4956475,20.7604034 67.255228,21.4773371 68.1539087,21.4773371 L112.405465,21.4773371 Z" id="Fill-55" fill="#FFFFFF" mask="url(#mask-2)"></path>
                            <path d="M112.405465,21.4773371 C113.522434,21.4773371 114.346615,20.3846926 113.993394,19.3218332 C112.930607,16.1233265 109.927711,13.8162841 106.381439,13.8162841 C105.081087,13.8162841 103.856798,14.1334698 102.770566,14.6837111 C102.45694,12.0464194 100.50537,9.91704271 97.9630156,9.34694456 C96.9116894,4.4527748 92.5745785,0.783976393 87.3804648,0.783976393 C81.4007219,0.783976393 76.5530562,5.64627082 76.5530562,11.6445812 C76.5530562,11.7517032 76.5577449,11.8583027 76.5608708,11.9649021 C75.9310129,11.8070931 75.2756272,11.7146024 74.5967977,11.7146024 C70.1216286,11.7146024 66.4935636,15.3530931 66.4935636,19.8422894 L66.4935636,19.8590109 C66.4956475,20.7604034 67.255228,21.4773371 68.1539087,21.4773371 L112.405465,21.4773371 Z" id="Stroke-56" stroke="#3ED1C4" stroke-width="1.56263875" mask="url(#mask-2)"></path>
                            <path d="M176.067012,59.6424554 C175.241268,59.6424554 174.632249,58.8351212 174.893257,58.0492114 C175.678886,55.6846889 177.898237,53.9796199 180.519779,53.9796199 C181.480977,53.9796199 182.385909,54.2137207 183.189252,54.6202618 C183.421085,52.6711637 184.863663,51.0972538 186.742817,50.6755589 C187.51959,47.05797 190.726187,44.3459541 194.565246,44.3459541 C198.985713,44.3459541 202.568974,47.9400284 202.568974,52.3738347 C202.568974,52.4532618 202.565327,52.5321663 202.563244,52.6110708 C203.028474,52.494543 203.51298,52.4255668 204.014678,52.4255668 C207.322865,52.4255668 210.00484,55.1156358 210.00484,58.4338056 L210.00484,58.4463467 C210.003277,59.1125934 209.441667,59.6424554 208.777425,59.6424554 L176.067012,59.6424554 Z" id="Fill-57" fill="#FFFFFF" mask="url(#mask-2)"></path>
                            <path d="M176.067012,59.6424554 C175.241268,59.6424554 174.632249,58.8351212 174.893257,58.0492114 C175.678886,55.6846889 177.898237,53.9796199 180.519779,53.9796199 C181.480977,53.9796199 182.385909,54.2137207 183.189252,54.6202618 C183.421085,52.6711637 184.863663,51.0972538 186.742817,50.6755589 C187.51959,47.05797 190.726187,44.3459541 194.565246,44.3459541 C198.985713,44.3459541 202.568974,47.9400284 202.568974,52.3738347 C202.568974,52.4532618 202.565327,52.5321663 202.563244,52.6110708 C203.028474,52.494543 203.51298,52.4255668 204.014678,52.4255668 C207.322865,52.4255668 210.00484,55.1156358 210.00484,58.4338056 L210.00484,58.4463467 C210.003277,59.1125934 209.441667,59.6424554 208.777425,59.6424554 L176.067012,59.6424554 Z" id="Stroke-58" stroke="#3ED1C4" stroke-width="1.56263875" mask="url(#mask-2)"></path>
                        </g>
                    </g>
                </g>
            </g>
        </g>
    </g>
</svg>