<?xml version="1.0" encoding="UTF-8" standalone="no"?>
<svg width="538px" height="147px" viewBox="0 0 538 147" version="1.1" xmlns="http://www.w3.org/2000/svg" xmlns:xlink="http://www.w3.org/1999/xlink">
    <!-- Generator: Sketch 39.1 (31720) - http://www.bohemiancoding.com/sketch -->
    <title>Logo</title>
    <desc>Created with Sketch.</desc>
    <defs></defs>
    <g id="Final-Assets" stroke="none" stroke-width="1" fill="none" fill-rule="evenodd">
        <g id="Logo" transform="translate(-10.000000, -10.000000)" fill="#39D0C4">
            <g transform="translate(10.000000, 10.000000)">
                <path d="M200.15,49.45 C197.549987,49.45 195.375009,48.550009 193.625,46.75 C191.874991,44.949991 191,42.750013 191,40.15 C191,37.549987 191.899991,35.350009 193.7,33.55 C195.500009,31.749991 197.674987,30.85 200.225,30.85 C202.775013,30.85 204.949991,31.749991 206.75,33.55 C208.550009,35.350009 209.45,37.549987 209.45,40.15 C209.45,42.750013 208.550009,44.949991 206.75,46.75 C204.949991,48.550009 202.750013,49.45 200.15,49.45 L200.15,49.45 Z M193.25,145 L193.25,62.65 L206.9,62.65 L206.9,145 L193.25,145 Z M243.05,62.65 L243.05,76 C248.650028,66.199951 257.599939,61.3 269.9,61.3 C279.000045,61.3 286.599969,64.3249698 292.7,70.375 C298.80003,76.4250302 301.85,85.049944 301.85,96.25 L301.85,145 L288.35,145 L288.35,98.5 C288.35,90.1999585 286.35002,83.9000215 282.35,79.6 C278.34998,75.2999785 272.825035,73.15 265.775,73.15 C258.724965,73.15 253.17502,75.2999785 249.125,79.6 C245.07498,83.9000215 243.05,90.1999585 243.05,98.5 L243.05,145 L229.4,145 L229.4,62.65 L243.05,62.65 Z M387.8,103.9 C387.8,94.5999535 385.075027,87.150028 379.625,81.55 C374.174973,75.949972 367.625038,73.15 359.975,73.15 C352.324962,73.15 345.775027,75.849973 340.325,81.25 C334.874973,86.650027 332.15,93.9999535 332.15,103.3 C332.15,112.600046 334.899972,120.149971 340.4,125.95 C345.900027,131.750029 352.449962,134.65 360.05,134.65 C367.650038,134.65 374.174973,131.850028 379.625,126.25 C385.075027,120.649972 387.8,113.200046 387.8,103.9 L387.8,103.9 Z M329.45,134.275 C321.949962,126.22496 318.2,115.925063 318.2,103.375 C318.2,90.8249373 321.924963,80.6750387 329.375,72.925 C336.825037,65.1749612 346.199944,61.3 357.5,61.3 C364.500035,61.3 370.624974,62.9499835 375.875,66.25 C381.125026,69.5500165 385.099986,73.8499735 387.8,79.15 L387.8,34 L401.6,34 L401.6,145 L387.8,145 L387.8,128.2 C385.099986,133.600027 381.125026,137.974983 375.875,141.325 C370.624974,144.675017 364.500035,146.35 357.5,146.35 C346.299944,146.35 336.950038,142.32504 329.45,134.275 L329.45,134.275 Z M431,49.45 C428.399987,49.45 426.225009,48.550009 424.475,46.75 C422.724991,44.949991 421.85,42.750013 421.85,40.15 C421.85,37.549987 422.749991,35.350009 424.55,33.55 C426.350009,31.749991 428.524987,30.85 431.075,30.85 C433.625013,30.85 435.799991,31.749991 437.6,33.55 C439.400009,35.350009 440.3,37.549987 440.3,40.15 C440.3,42.750013 439.400009,44.949991 437.6,46.75 C435.799991,48.550009 433.600013,49.45 431,49.45 L431,49.45 Z M424.1,145 L424.1,62.65 L437.75,62.65 L437.75,145 L424.1,145 Z M515.375,126.775 C521.025028,121.224972 523.85,113.550049 523.85,103.75 C523.85,93.949951 521.150027,86.3000275 515.75,80.8 C510.349973,75.2999725 503.775039,72.55 496.025,72.55 C488.274961,72.55 481.800026,75.2999725 476.6,80.8 C471.399974,86.3000275 468.8,93.9749508 468.8,103.825 C468.8,113.675049 471.299975,121.349972 476.3,126.85 C481.300025,132.350028 487.649962,135.1 495.35,135.1 C503.050039,135.1 509.724972,132.325028 515.375,126.775 L515.375,126.775 Z M454.85,103.9 C454.85,91.1999365 458.79996,80.9250392 466.7,73.075 C474.600039,65.2249607 484.49994,61.3 496.4,61.3 C508.300059,61.3 518.19996,65.2249607 526.1,73.075 C534.000039,80.9250392 537.95,91.1749368 537.95,103.825 C537.95,116.475063 533.825041,126.724961 525.575,134.575 C517.324959,142.425039 507.25006,146.35 495.35,146.35 C483.449941,146.35 473.725038,142.450039 466.175,134.65 C458.624962,126.849961 454.85,116.600064 454.85,103.9 L454.85,103.9 Z" id="indio"></path>
                <path d="M0,0 L146,0 L146,146 L0,146 L0,0 Z M64.3000031,63.3000031 L81.5000038,63.3000031 L81.5000038,146 L64.3000031,146 L64.3000031,63.3000031 Z M72.8999996,52.3999977 C78.9199032,52.3999977 83.7999992,47.5199017 83.7999992,41.4999981 C83.7999992,35.4800945 78.9199032,30.5999985 72.8999996,30.5999985 C66.8800961,30.5999985 62,35.4800945 62,41.4999981 C62,47.5199017 66.8800961,52.3999977 72.8999996,52.3999977 Z" id="Combined-Shape"></path>
            </g>
        </g>
    </g>
</svg>